<mxfile host="app.diagrams.net" agent="Mozilla/5.0 (Windows NT 10.0; Win64; x64) AppleWebKit/537.36 (KHTML, like Gecko) Chrome/134.0.0.0 Safari/537.36 Edg/134.0.0.0" version="24.8.4">
  <diagram name="페이지-1" id="uuy63WmwbdW7DcjkDLRZ">
    <mxGraphModel dx="4445" dy="2075" grid="1" gridSize="10" guides="1" tooltips="1" connect="1" arrows="1" fold="1" page="1" pageScale="1" pageWidth="827" pageHeight="1169" math="0" shadow="0">
      <root>
        <mxCell id="0" />
        <mxCell id="1" parent="0" />
        <mxCell id="2EQNSn-tFkg0-ULbg_WI-74" value="" style="rounded=0;whiteSpace=wrap;html=1;" vertex="1" parent="1">
          <mxGeometry x="175" y="720" width="210" height="145" as="geometry" />
        </mxCell>
        <mxCell id="2EQNSn-tFkg0-ULbg_WI-54" value="" style="rounded=0;whiteSpace=wrap;html=1;" vertex="1" parent="1">
          <mxGeometry x="-475" y="975" width="145" height="185" as="geometry" />
        </mxCell>
        <mxCell id="2EQNSn-tFkg0-ULbg_WI-19" style="edgeStyle=orthogonalEdgeStyle;rounded=0;orthogonalLoop=1;jettySize=auto;html=1;entryX=0;entryY=0.5;entryDx=0;entryDy=0;" edge="1" parent="1" source="2EQNSn-tFkg0-ULbg_WI-14" target="2EQNSn-tFkg0-ULbg_WI-16">
          <mxGeometry relative="1" as="geometry" />
        </mxCell>
        <mxCell id="2EQNSn-tFkg0-ULbg_WI-14" value="" style="rounded=0;whiteSpace=wrap;html=1;" vertex="1" parent="1">
          <mxGeometry x="437.5" y="640" width="217" height="140" as="geometry" />
        </mxCell>
        <mxCell id="2EQNSn-tFkg0-ULbg_WI-3" style="edgeStyle=orthogonalEdgeStyle;rounded=0;orthogonalLoop=1;jettySize=auto;html=1;entryX=0;entryY=0.5;entryDx=0;entryDy=0;" edge="1" parent="1" source="2EQNSn-tFkg0-ULbg_WI-1" target="2EQNSn-tFkg0-ULbg_WI-2">
          <mxGeometry relative="1" as="geometry" />
        </mxCell>
        <mxCell id="2EQNSn-tFkg0-ULbg_WI-1" value="Netty&amp;nbsp;&lt;div&gt;(customize)&lt;/div&gt;" style="rounded=1;whiteSpace=wrap;html=1;" vertex="1" parent="1">
          <mxGeometry x="10" y="430" width="140" height="90" as="geometry" />
        </mxCell>
        <mxCell id="2EQNSn-tFkg0-ULbg_WI-5" style="edgeStyle=orthogonalEdgeStyle;rounded=0;orthogonalLoop=1;jettySize=auto;html=1;entryX=0;entryY=0.5;entryDx=0;entryDy=0;" edge="1" parent="1" source="2EQNSn-tFkg0-ULbg_WI-2" target="2EQNSn-tFkg0-ULbg_WI-4">
          <mxGeometry relative="1" as="geometry" />
        </mxCell>
        <mxCell id="2EQNSn-tFkg0-ULbg_WI-76" style="edgeStyle=orthogonalEdgeStyle;rounded=0;orthogonalLoop=1;jettySize=auto;html=1;" edge="1" parent="1" source="2EQNSn-tFkg0-ULbg_WI-2" target="2EQNSn-tFkg0-ULbg_WI-74">
          <mxGeometry relative="1" as="geometry" />
        </mxCell>
        <mxCell id="2EQNSn-tFkg0-ULbg_WI-2" value="protocol manager" style="rounded=1;whiteSpace=wrap;html=1;" vertex="1" parent="1">
          <mxGeometry x="220" y="620" width="120" height="60" as="geometry" />
        </mxCell>
        <mxCell id="2EQNSn-tFkg0-ULbg_WI-6" style="edgeStyle=orthogonalEdgeStyle;rounded=0;orthogonalLoop=1;jettySize=auto;html=1;entryX=0.5;entryY=0;entryDx=0;entryDy=0;" edge="1" parent="1" source="2EQNSn-tFkg0-ULbg_WI-4" target="2EQNSn-tFkg0-ULbg_WI-14">
          <mxGeometry relative="1" as="geometry">
            <mxPoint x="513" y="640" as="targetPoint" />
          </mxGeometry>
        </mxCell>
        <mxCell id="2EQNSn-tFkg0-ULbg_WI-27" style="edgeStyle=orthogonalEdgeStyle;rounded=0;orthogonalLoop=1;jettySize=auto;html=1;entryX=0;entryY=0.5;entryDx=0;entryDy=0;" edge="1" parent="1" source="2EQNSn-tFkg0-ULbg_WI-4" target="2EQNSn-tFkg0-ULbg_WI-26">
          <mxGeometry relative="1" as="geometry">
            <Array as="points">
              <mxPoint x="546" y="280" />
            </Array>
          </mxGeometry>
        </mxCell>
        <mxCell id="2EQNSn-tFkg0-ULbg_WI-4" value="broker manager" style="shape=process;whiteSpace=wrap;html=1;backgroundOutline=1;" vertex="1" parent="1">
          <mxGeometry x="453" y="435" width="186" height="80" as="geometry" />
        </mxCell>
        <mxCell id="2EQNSn-tFkg0-ULbg_WI-7" value="" style="rounded=1;whiteSpace=wrap;html=1;" vertex="1" parent="1">
          <mxGeometry x="470" y="665" width="120" height="60" as="geometry" />
        </mxCell>
        <mxCell id="2EQNSn-tFkg0-ULbg_WI-11" value="" style="rounded=1;whiteSpace=wrap;html=1;" vertex="1" parent="1">
          <mxGeometry x="477" y="675" width="120" height="60" as="geometry" />
        </mxCell>
        <mxCell id="2EQNSn-tFkg0-ULbg_WI-10" value="" style="rounded=1;whiteSpace=wrap;html=1;" vertex="1" parent="1">
          <mxGeometry x="487" y="685" width="120" height="60" as="geometry" />
        </mxCell>
        <mxCell id="2EQNSn-tFkg0-ULbg_WI-9" value="" style="rounded=1;whiteSpace=wrap;html=1;" vertex="1" parent="1">
          <mxGeometry x="497" y="695" width="120" height="60" as="geometry" />
        </mxCell>
        <mxCell id="2EQNSn-tFkg0-ULbg_WI-15" value="broker inherit" style="text;html=1;align=center;verticalAlign=middle;whiteSpace=wrap;rounded=0;" vertex="1" parent="1">
          <mxGeometry x="437.5" y="750" width="60" height="30" as="geometry" />
        </mxCell>
        <mxCell id="2EQNSn-tFkg0-ULbg_WI-24" style="edgeStyle=orthogonalEdgeStyle;rounded=0;orthogonalLoop=1;jettySize=auto;html=1;entryX=1;entryY=0.5;entryDx=0;entryDy=0;" edge="1" parent="1" source="2EQNSn-tFkg0-ULbg_WI-16" target="2EQNSn-tFkg0-ULbg_WI-4">
          <mxGeometry relative="1" as="geometry">
            <mxPoint x="840" y="490" as="targetPoint" />
            <Array as="points">
              <mxPoint x="830" y="475" />
            </Array>
          </mxGeometry>
        </mxCell>
        <mxCell id="2EQNSn-tFkg0-ULbg_WI-16" value="" style="rounded=0;whiteSpace=wrap;html=1;" vertex="1" parent="1">
          <mxGeometry x="740" y="640" width="200" height="140" as="geometry" />
        </mxCell>
        <mxCell id="2EQNSn-tFkg0-ULbg_WI-17" value="business&lt;br&gt;implements" style="text;html=1;align=center;verticalAlign=middle;whiteSpace=wrap;rounded=0;" vertex="1" parent="1">
          <mxGeometry x="740" y="750" width="60" height="30" as="geometry" />
        </mxCell>
        <mxCell id="2EQNSn-tFkg0-ULbg_WI-22" value="" style="rounded=1;whiteSpace=wrap;html=1;" vertex="1" parent="1">
          <mxGeometry x="770" y="665" width="120" height="60" as="geometry" />
        </mxCell>
        <mxCell id="2EQNSn-tFkg0-ULbg_WI-21" value="" style="rounded=1;whiteSpace=wrap;html=1;" vertex="1" parent="1">
          <mxGeometry x="780" y="675" width="120" height="60" as="geometry" />
        </mxCell>
        <mxCell id="2EQNSn-tFkg0-ULbg_WI-20" value="" style="rounded=1;whiteSpace=wrap;html=1;" vertex="1" parent="1">
          <mxGeometry x="790" y="685" width="120" height="60" as="geometry" />
        </mxCell>
        <mxCell id="2EQNSn-tFkg0-ULbg_WI-23" value="" style="rounded=1;whiteSpace=wrap;html=1;" vertex="1" parent="1">
          <mxGeometry x="800" y="695" width="120" height="60" as="geometry" />
        </mxCell>
        <mxCell id="2EQNSn-tFkg0-ULbg_WI-28" style="edgeStyle=orthogonalEdgeStyle;rounded=0;orthogonalLoop=1;jettySize=auto;html=1;" edge="1" parent="1" source="2EQNSn-tFkg0-ULbg_WI-26" target="2EQNSn-tFkg0-ULbg_WI-29">
          <mxGeometry relative="1" as="geometry">
            <mxPoint x="1090" y="280" as="targetPoint" />
          </mxGeometry>
        </mxCell>
        <mxCell id="2EQNSn-tFkg0-ULbg_WI-30" style="edgeStyle=orthogonalEdgeStyle;rounded=0;orthogonalLoop=1;jettySize=auto;html=1;" edge="1" parent="1" source="2EQNSn-tFkg0-ULbg_WI-26">
          <mxGeometry relative="1" as="geometry">
            <mxPoint x="1061.5" y="430" as="targetPoint" />
          </mxGeometry>
        </mxCell>
        <mxCell id="2EQNSn-tFkg0-ULbg_WI-26" value="central hub&lt;br&gt;(Transaction)" style="rounded=1;whiteSpace=wrap;html=1;" vertex="1" parent="1">
          <mxGeometry x="940" y="210" width="243" height="140" as="geometry" />
        </mxCell>
        <mxCell id="2EQNSn-tFkg0-ULbg_WI-29" value="data access area" style="rounded=1;whiteSpace=wrap;html=1;" vertex="1" parent="1">
          <mxGeometry x="1350" y="220" width="210" height="120" as="geometry" />
        </mxCell>
        <mxCell id="2EQNSn-tFkg0-ULbg_WI-32" style="edgeStyle=orthogonalEdgeStyle;rounded=0;orthogonalLoop=1;jettySize=auto;html=1;" edge="1" parent="1" source="2EQNSn-tFkg0-ULbg_WI-31">
          <mxGeometry relative="1" as="geometry">
            <mxPoint x="1200" y="560" as="targetPoint" />
          </mxGeometry>
        </mxCell>
        <mxCell id="2EQNSn-tFkg0-ULbg_WI-31" value="event recoder" style="rounded=1;whiteSpace=wrap;html=1;" vertex="1" parent="1">
          <mxGeometry x="1001.5" y="430" width="120" height="60" as="geometry" />
        </mxCell>
        <mxCell id="2EQNSn-tFkg0-ULbg_WI-33" value="event archieve" style="rounded=1;whiteSpace=wrap;html=1;" vertex="1" parent="1">
          <mxGeometry x="1140" y="560" width="120" height="60" as="geometry" />
        </mxCell>
        <mxCell id="2EQNSn-tFkg0-ULbg_WI-79" style="edgeStyle=orthogonalEdgeStyle;rounded=0;orthogonalLoop=1;jettySize=auto;html=1;entryX=0.5;entryY=1;entryDx=0;entryDy=0;" edge="1" parent="1" source="2EQNSn-tFkg0-ULbg_WI-51" target="2EQNSn-tFkg0-ULbg_WI-66">
          <mxGeometry relative="1" as="geometry" />
        </mxCell>
        <mxCell id="2EQNSn-tFkg0-ULbg_WI-80" value="&lt;div&gt;is support?&lt;/div&gt;" style="edgeLabel;html=1;align=center;verticalAlign=middle;resizable=0;points=[];" vertex="1" connectable="0" parent="2EQNSn-tFkg0-ULbg_WI-79">
          <mxGeometry x="0.1636" y="-1" relative="1" as="geometry">
            <mxPoint as="offset" />
          </mxGeometry>
        </mxCell>
        <mxCell id="2EQNSn-tFkg0-ULbg_WI-51" value="&lt;div&gt;protocol&lt;/div&gt;&lt;span style=&quot;color: rgb(0, 0, 0); font-family: Helvetica; font-size: 12px; font-style: normal; font-variant-ligatures: normal; font-variant-caps: normal; font-weight: 400; letter-spacing: normal; orphans: 2; text-align: center; text-indent: 0px; text-transform: none; widows: 2; word-spacing: 0px; -webkit-text-stroke-width: 0px; white-space: normal; background-color: rgb(251, 251, 251); text-decoration-thickness: initial; text-decoration-style: initial; text-decoration-color: initial; display: inline !important; float: none;&quot;&gt;interpreter&lt;/span&gt;" style="rounded=1;whiteSpace=wrap;html=1;" vertex="1" parent="1">
          <mxGeometry x="-648" y="940" width="120" height="60" as="geometry" />
        </mxCell>
        <mxCell id="2EQNSn-tFkg0-ULbg_WI-78" style="edgeStyle=orthogonalEdgeStyle;rounded=0;orthogonalLoop=1;jettySize=auto;html=1;" edge="1" parent="1" source="2EQNSn-tFkg0-ULbg_WI-52" target="2EQNSn-tFkg0-ULbg_WI-51">
          <mxGeometry relative="1" as="geometry" />
        </mxCell>
        <mxCell id="2EQNSn-tFkg0-ULbg_WI-52" value="Http&lt;br&gt;interpreter" style="rounded=0;whiteSpace=wrap;html=1;" vertex="1" parent="1">
          <mxGeometry x="-648" y="1075" width="120" height="60" as="geometry" />
        </mxCell>
        <mxCell id="2EQNSn-tFkg0-ULbg_WI-57" value="Http interpreter" style="text;html=1;align=center;verticalAlign=middle;whiteSpace=wrap;rounded=0;" vertex="1" parent="1">
          <mxGeometry x="-475" y="975" width="150" height="40" as="geometry" />
        </mxCell>
        <mxCell id="2EQNSn-tFkg0-ULbg_WI-58" value="header parser" style="rounded=1;whiteSpace=wrap;html=1;" vertex="1" parent="1">
          <mxGeometry x="-460" y="1015" width="120" height="60" as="geometry" />
        </mxCell>
        <mxCell id="2EQNSn-tFkg0-ULbg_WI-59" value="body parser" style="rounded=1;whiteSpace=wrap;html=1;" vertex="1" parent="1">
          <mxGeometry x="-460" y="1085" width="120" height="60" as="geometry" />
        </mxCell>
        <mxCell id="2EQNSn-tFkg0-ULbg_WI-66" value="protocol manager" style="rounded=1;whiteSpace=wrap;html=1;" vertex="1" parent="1">
          <mxGeometry x="-648" y="825" width="120" height="60" as="geometry" />
        </mxCell>
        <mxCell id="2EQNSn-tFkg0-ULbg_WI-68" value="" style="rounded=1;whiteSpace=wrap;html=1;" vertex="1" parent="1">
          <mxGeometry x="205" y="745" width="120" height="60" as="geometry" />
        </mxCell>
        <mxCell id="2EQNSn-tFkg0-ULbg_WI-70" value="" style="rounded=1;whiteSpace=wrap;html=1;" vertex="1" parent="1">
          <mxGeometry x="215" y="755" width="120" height="60" as="geometry" />
        </mxCell>
        <mxCell id="2EQNSn-tFkg0-ULbg_WI-71" value="" style="rounded=1;whiteSpace=wrap;html=1;" vertex="1" parent="1">
          <mxGeometry x="225" y="765" width="120" height="60" as="geometry" />
        </mxCell>
        <mxCell id="2EQNSn-tFkg0-ULbg_WI-72" value="" style="rounded=1;whiteSpace=wrap;html=1;" vertex="1" parent="1">
          <mxGeometry x="235" y="775" width="120" height="60" as="geometry" />
        </mxCell>
        <mxCell id="2EQNSn-tFkg0-ULbg_WI-75" value="protocol&lt;br&gt;interpreter" style="text;html=1;align=center;verticalAlign=middle;whiteSpace=wrap;rounded=0;" vertex="1" parent="1">
          <mxGeometry x="175" y="835" width="60" height="30" as="geometry" />
        </mxCell>
        <mxCell id="2EQNSn-tFkg0-ULbg_WI-84" style="edgeStyle=orthogonalEdgeStyle;rounded=0;orthogonalLoop=1;jettySize=auto;html=1;" edge="1" parent="1" source="2EQNSn-tFkg0-ULbg_WI-83" target="2EQNSn-tFkg0-ULbg_WI-85">
          <mxGeometry relative="1" as="geometry">
            <mxPoint x="-240" y="1070" as="targetPoint" />
          </mxGeometry>
        </mxCell>
        <mxCell id="2EQNSn-tFkg0-ULbg_WI-83" value="header parser" style="rounded=1;whiteSpace=wrap;html=1;" vertex="1" parent="1">
          <mxGeometry x="-275" y="965" width="120" height="60" as="geometry" />
        </mxCell>
        <mxCell id="2EQNSn-tFkg0-ULbg_WI-85" value="" style="rounded=0;whiteSpace=wrap;html=1;" vertex="1" parent="1">
          <mxGeometry x="-300" y="1050" width="170" height="110" as="geometry" />
        </mxCell>
        <mxCell id="2EQNSn-tFkg0-ULbg_WI-86" value="" style="rounded=1;whiteSpace=wrap;html=1;" vertex="1" parent="1">
          <mxGeometry x="-290" y="1060" width="120" height="60" as="geometry" />
        </mxCell>
        <mxCell id="2EQNSn-tFkg0-ULbg_WI-88" value="" style="rounded=1;whiteSpace=wrap;html=1;" vertex="1" parent="1">
          <mxGeometry x="-280" y="1070" width="120" height="60" as="geometry" />
        </mxCell>
        <mxCell id="2EQNSn-tFkg0-ULbg_WI-87" value="" style="rounded=1;whiteSpace=wrap;html=1;" vertex="1" parent="1">
          <mxGeometry x="-270" y="1080" width="120" height="60" as="geometry" />
        </mxCell>
        <mxCell id="2EQNSn-tFkg0-ULbg_WI-89" value="" style="rounded=1;whiteSpace=wrap;html=1;" vertex="1" parent="1">
          <mxGeometry x="-260" y="1090" width="120" height="60" as="geometry" />
        </mxCell>
        <mxCell id="2EQNSn-tFkg0-ULbg_WI-92" style="edgeStyle=orthogonalEdgeStyle;rounded=0;orthogonalLoop=1;jettySize=auto;html=1;" edge="1" parent="1" source="2EQNSn-tFkg0-ULbg_WI-90" target="2EQNSn-tFkg0-ULbg_WI-91">
          <mxGeometry relative="1" as="geometry" />
        </mxCell>
        <mxCell id="2EQNSn-tFkg0-ULbg_WI-90" value="body parser" style="rounded=1;whiteSpace=wrap;html=1;" vertex="1" parent="1">
          <mxGeometry x="-55" y="965" width="120" height="60" as="geometry" />
        </mxCell>
        <mxCell id="2EQNSn-tFkg0-ULbg_WI-91" value="" style="rounded=0;whiteSpace=wrap;html=1;" vertex="1" parent="1">
          <mxGeometry x="-80" y="1050" width="170" height="110" as="geometry" />
        </mxCell>
        <mxCell id="2EQNSn-tFkg0-ULbg_WI-94" value="" style="rounded=1;whiteSpace=wrap;html=1;" vertex="1" parent="1">
          <mxGeometry x="-70" y="1060" width="120" height="60" as="geometry" />
        </mxCell>
        <mxCell id="2EQNSn-tFkg0-ULbg_WI-95" value="" style="rounded=1;whiteSpace=wrap;html=1;" vertex="1" parent="1">
          <mxGeometry x="-60" y="1070" width="120" height="60" as="geometry" />
        </mxCell>
        <mxCell id="2EQNSn-tFkg0-ULbg_WI-96" value="" style="rounded=1;whiteSpace=wrap;html=1;" vertex="1" parent="1">
          <mxGeometry x="-50" y="1080" width="120" height="60" as="geometry" />
        </mxCell>
        <mxCell id="2EQNSn-tFkg0-ULbg_WI-97" value="" style="rounded=1;whiteSpace=wrap;html=1;" vertex="1" parent="1">
          <mxGeometry x="-40" y="1090" width="120" height="60" as="geometry" />
        </mxCell>
      </root>
    </mxGraphModel>
  </diagram>
</mxfile>
